<svg xmlns="http://www.w3.org/2000/svg" viewBox="0 0 1600 900" role="img" aria-label="AI agent simulation product demo preview">
  <defs>
    <linearGradient id="bg" x1="0" y1="1" x2="1" y2="0">
      <stop stop-color="#030713"/>
      <stop offset=".55" stop-color="#0b142b"/>
      <stop offset="1" stop-color="#1b1233"/>
    </linearGradient>
    <radialGradient id="core" cx="42%" cy="35%" r="70%">
      <stop stop-color="#eaf8ff" stop-opacity=".3"/>
      <stop offset=".5" stop-color="#8ecdff" stop-opacity=".14"/>
      <stop offset="1" stop-color="#bb7eff" stop-opacity=".03"/>
    </radialGradient>
    <pattern id="dots" width="52" height="52" patternUnits="userSpaceOnUse">
      <circle cx="3" cy="3" r="2" fill="#8ecdff" fill-opacity=".12"/>
    </pattern>
    <filter id="glow" x="-50%" y="-50%" width="200%" height="200%">
      <feGaussianBlur stdDeviation="7" result="blur"/>
      <feMerge><feMergeNode in="blur"/><feMergeNode in="SourceGraphic"/></feMerge>
    </filter>
  </defs>
  <rect width="1600" height="900" fill="url(#bg)"/>
  <rect width="1600" height="900" fill="url(#dots)"/>
  <g fill="none" stroke="#8ecdff" stroke-opacity=".25" stroke-width="2">
    <ellipse cx="965" cy="330" rx="470" ry="260"/>
    <ellipse cx="965" cy="330" rx="330" ry="185" stroke="#bb7eff" stroke-dasharray="9 18"/>
    <ellipse cx="965" cy="330" rx="180" ry="100" stroke-dasharray="4 12"/>
  </g>
  <g fill="none" stroke="#8ecdff" stroke-opacity=".35" stroke-width="2">
    <path d="M965 330 558 154M965 330 790 95M965 330 1180 112M965 330 1420 244M965 330 1340 530M965 330 910 622M965 330 552 520"/>
    <path d="M558 154 790 95 1180 112 1420 244 1340 530 910 622 552 520Z" stroke="#bb7eff" stroke-opacity=".24"/>
  </g>
  <g fill="#071426" stroke="#8ecdff" stroke-width="3">
    <circle cx="558" cy="154" r="27"/><circle cx="790" cy="95" r="23"/><circle cx="1180" cy="112" r="25"/>
    <circle cx="1420" cy="244" r="28"/><circle cx="1340" cy="530" r="24"/><circle cx="910" cy="622" r="27"/>
    <circle cx="552" cy="520" r="24"/>
  </g>
  <g fill="#ff7ac8" filter="url(#glow)">
    <circle cx="576" cy="137" r="6"/><circle cx="1200" cy="95" r="6"/><circle cx="1360" cy="514" r="6"/>
  </g>
  <circle cx="965" cy="330" r="124" fill="url(#core)" stroke="#8ecdff" stroke-opacity=".7" stroke-width="3"/>
  <circle cx="965" cy="330" r="86" fill="none" stroke="#bb7eff" stroke-width="3" stroke-dasharray="8 14"/>
  <circle cx="965" cy="330" r="23" fill="#f2fbff" filter="url(#glow)"/>
  <text x="965" y="430" text-anchor="middle" fill="#8ecdff" font-family="Segoe UI,Arial,sans-serif" font-size="18" font-weight="800" letter-spacing="5">AI CORE</text>
  <g fill="#eff7ff" font-family="Segoe UI,Arial,sans-serif">
    <text x="92" y="92" font-size="19" font-weight="800" letter-spacing="6">PRODUCT DEMO / SYSTEM PREVIEW</text>
    <text x="92" y="760" font-size="64" font-weight="700" letter-spacing="-2">Multi-Agent Simulation</text>
    <text x="96" y="808" fill="#9aacbf" font-size="18" font-weight="700" letter-spacing="4">SOCIAL SIGNAL · BEHAVIOR ENGINE · ATTACK–DEFENSE</text>
  </g>
  <g transform="translate(1390 745)">
    <circle r="58" fill="#091528" fill-opacity=".88" stroke="#8ecdff" stroke-width="3"/>
    <path d="M-13-21 26 0-13 21Z" fill="#f5eaff"/>
  </g>
</svg>
